<?xml version="1.0" encoding="UTF-8" standalone="no"?>
<!-- Created with Inkscape (http://www.inkscape.org/) -->

<svg
   xmlns:dc="http://purl.org/dc/elements/1.1/"
   xmlns:cc="http://creativecommons.org/ns#"
   xmlns:rdf="http://www.w3.org/1999/02/22-rdf-syntax-ns#"
   xmlns:svg="http://www.w3.org/2000/svg"
   xmlns="http://www.w3.org/2000/svg"
   xmlns:xlink="http://www.w3.org/1999/xlink"
   xmlns:sodipodi="http://sodipodi.sourceforge.net/DTD/sodipodi-0.dtd"
   xmlns:inkscape="http://www.inkscape.org/namespaces/inkscape"
   width="120"
   height="80"
   id="svg2"
   version="1.1"
   inkscape:version="0.48.4 r9939"
   sodipodi:docname="ebx_DefaultModuleIconSprite.svg"
   inkscape:export-filename="D:\Work\EBX_BrancheVariable\_ebx-tools\webapps\ebx-manager\www\common\images\onHeader\ebx_DefaultModuleIconSprite.png"
   inkscape:export-xdpi="90"
   inkscape:export-ydpi="90">
  <defs
     id="defs4" />
  <sodipodi:namedview
     id="base"
     pagecolor="#ffffff"
     bordercolor="#666666"
     borderopacity="1.0"
     inkscape:pageopacity="0.0"
     inkscape:pageshadow="2"
     inkscape:zoom="11.313708"
     inkscape:cx="34.199086"
     inkscape:cy="44.801379"
     inkscape:document-units="px"
     inkscape:current-layer="layer1"
     showgrid="true"
     inkscape:window-width="1680"
     inkscape:window-height="1028"
     inkscape:window-x="1432"
     inkscape:window-y="-8"
     inkscape:window-maximized="1"
     inkscape:snap-bbox="true"
     inkscape:snap-global="true">
    <inkscape:grid
       type="xygrid"
       id="grid2985"
       empspacing="10"
       visible="true"
       enabled="true"
       snapvisiblegridlinesonly="true"
       dotted="false"
       spacingx="1px"
       spacingy="1px" />
    <inkscape:grid
       type="xygrid"
       id="grid2987"
       empspacing="1"
       visible="true"
       enabled="true"
       snapvisiblegridlinesonly="true"
       spacingx="40px"
       spacingy="40px"
       color="#800000"
       opacity="1"
       empcolor="#800000"
       empopacity="1"
       dotted="false" />
    <inkscape:grid
       type="xygrid"
       id="grid3195"
       empspacing="1"
       visible="true"
       enabled="true"
       snapvisiblegridlinesonly="true"
       originy="0.5px"
       originx="0.5px"
       empcolor="#ff0000"
       empopacity="0.0627451"
       color="#ff0000"
       opacity="0"
       dotted="true" />
  </sodipodi:namedview>
  <metadata
     id="metadata7">
    <rdf:RDF>
      <cc:Work
         rdf:about="">
        <dc:format>image/svg+xml</dc:format>
        <dc:type
           rdf:resource="http://purl.org/dc/dcmitype/StillImage" />
        <dc:title></dc:title>
        <cc:license
           rdf:resource="" />
        <dc:contributor>
          <cc:Agent>
            <dc:title>Dmitry Baranovskiy from the Noun Project</dc:title>
          </cc:Agent>
        </dc:contributor>
      </cc:Work>
    </rdf:RDF>
  </metadata>
  <g
     inkscape:label="Calque 1"
     inkscape:groupmode="layer"
     id="layer1"
     transform="translate(0,-972.3622)">
    <path
       style="color:#000000;fill:#000000;fill-opacity:1;fill-rule:evenodd;stroke:none;stroke-width:2;marker:none;visibility:visible;display:inline;overflow:visible;enable-background:accumulate"
       d="M 0 40 L 0 80 L 40 80 L 40 40 L 0 40 z M 19.59375 50.9375 C 19.59375 50.9375 23.1694 55.6087 23.65625 54.125 C 24.246513 52.3297 25.49103 50.3626 27.59375 52.5625 C 27.59375 52.5625 29.345238 54.1705 28.28125 55.1875 C 27.217263 56.2045 26.107436 55.9314 25.8125 56.875 C 25.520175 57.8197 29.3125 59.5 29.3125 59.5 C 29.3125 59.5 27.713295 63.66425 26.03125 62.96875 C 24.349062 62.27255 25.815435 60.3055 23.4375 60.25 C 22.408318 60.26 20.874308 61.1665 20.84375 62.625 C 21.135069 64.7387 22.371156 63.95045 23.5 64.90625 C 24.631508 65.85915 20.6875 69.0625 20.6875 69.0625 C 20.6875 69.0625 18.889736 66.2393 17.0625 66 C 15.234833 65.7584 16.666947 67.7906 15.15625 68.375 C 13.648297 68.974 11.109565 67.2319 11.8125 65.1875 C 12.516887 63.138 14.334534 64.6839 14.1875 63.1875 C 14.041922 61.6731 10.6875 60.3125 10.6875 60.3125 C 10.6875 60.3125 12.71475 56.1936 14.46875 56.6875 C 16.223523 57.1813 14.560394 58.92025 16.25 59.34375 C 17.938836 59.76745 20.124643 58.43635 19.21875 56.46875 C 18.312857 54.50115 17.646635 56.12885 16.71875 55.15625 C 15.789318 54.18395 19.59375 50.9375 19.59375 50.9375 z "
       transform="translate(0,972.3622)"
       id="rect4047-1" />
    <use
       height="512"
       width="256"
       transform="translate(53,800.3622)"
       id="use4581"
       xlink:href="#use7753"
       y="0"
       x="0" />
    <use
       x="0"
       y="0"
       xlink:href="#use7753"
       id="use4562"
       transform="translate(47,796.3622)"
       width="256"
       height="512" />
    <g
       id="g4060"
       transform="matrix(0.70710678,-0.70710678,0.70710678,0.70710678,-693.90914,485.08361)"
       style="fill:#ffffff;fill-opacity:1;stroke:#ffffff;stroke-opacity:1" />
    <g
       style="fill:#ffffff;fill-opacity:1"
       id="g4070" />
    <g
       style="stroke:#ffffff;stroke-opacity:1"
       id="g4076" />
    <g
       style="stroke:#808080;stroke-width:1.52901244;stroke-miterlimit:4;stroke-opacity:1;stroke-dasharray:none"
       id="g4098"
       transform="matrix(1.3080338,0,0,1.3080338,334.55254,804.53024)" />
    <g
       id="g4112"
       style="fill:#ffffff;fill-opacity:1"
       transform="translate(-50,0)" />
    <g
       style="fill:#ffffff;fill-opacity:1"
       id="g4118"
       transform="translate(80,0)" />
    <g
       style="fill:#ffffff;fill-opacity:1"
       id="g4124"
       transform="translate(-10,0)" />
    <path
       style="color:#000000;fill:#808080;fill-opacity:1;fill-rule:evenodd;stroke:none;stroke-width:2;marker:none;visibility:visible;display:inline;overflow:visible;enable-background:accumulate"
       d="M 40 40 L 40 80 L 80 80 L 80 40 L 40 40 z M 59.59375 50.9375 C 59.59375 50.9375 63.1694 55.6087 63.65625 54.125 C 64.246513 52.3297 65.49103 50.3626 67.59375 52.5625 C 67.59375 52.5625 69.345238 54.1705 68.28125 55.1875 C 67.217263 56.2045 66.107436 55.9314 65.8125 56.875 C 65.520175 57.8197 69.3125 59.5 69.3125 59.5 C 69.3125 59.5 67.713295 63.66425 66.03125 62.96875 C 64.349062 62.27255 65.815435 60.3055 63.4375 60.25 C 62.408318 60.26 60.874308 61.1665 60.84375 62.625 C 61.135069 64.7387 62.371156 63.95045 63.5 64.90625 C 64.631508 65.85915 60.6875 69.0625 60.6875 69.0625 C 60.6875 69.0625 58.889736 66.2393 57.0625 66 C 55.234833 65.7584 56.666947 67.7906 55.15625 68.375 C 53.648297 68.974 51.109565 67.2319 51.8125 65.1875 C 52.516887 63.138 54.334534 64.6839 54.1875 63.1875 C 54.041922 61.6731 50.6875 60.3125 50.6875 60.3125 C 50.6875 60.3125 52.71475 56.1936 54.46875 56.6875 C 56.223523 57.1813 54.560394 58.92025 56.25 59.34375 C 57.938836 59.76745 60.124643 58.43635 59.21875 56.46875 C 58.312857 54.50115 57.646635 56.12885 56.71875 55.15625 C 55.789318 54.18395 59.59375 50.9375 59.59375 50.9375 z "
       transform="translate(0,972.3622)"
       id="path3988" />
    <path
       style="color:#000000;fill:#ffffff;fill-opacity:1;fill-rule:evenodd;stroke:none;stroke-width:2;marker:none;visibility:visible;display:inline;overflow:visible;enable-background:accumulate"
       d="M 80 40 L 80 80 L 120 80 L 120 40 L 80 40 z M 99.59375 50.9375 C 99.59375 50.9375 103.1694 55.6087 103.65625 54.125 C 104.24652 52.3297 105.49103 50.3626 107.59375 52.5625 C 107.59375 52.5625 109.34524 54.1705 108.28125 55.1875 C 107.21726 56.2045 106.10743 55.9314 105.8125 56.875 C 105.52017 57.8197 109.3125 59.5 109.3125 59.5 C 109.3125 59.5 107.7133 63.66425 106.03125 62.96875 C 104.34906 62.27255 105.81543 60.3055 103.4375 60.25 C 102.40832 60.26 100.8743 61.1665 100.84375 62.625 C 101.13507 64.7387 102.37115 63.95045 103.5 64.90625 C 104.6315 65.85915 100.6875 69.0625 100.6875 69.0625 C 100.6875 69.0625 98.889736 66.2393 97.0625 66 C 95.234833 65.7584 96.666947 67.7906 95.15625 68.375 C 93.648297 68.974 91.109565 67.2319 91.8125 65.1875 C 92.516887 63.138 94.334534 64.6839 94.1875 63.1875 C 94.041922 61.6731 90.6875 60.3125 90.6875 60.3125 C 90.6875 60.3125 92.71475 56.1936 94.46875 56.6875 C 96.223523 57.1813 94.560394 58.92025 96.25 59.34375 C 97.938836 59.76745 100.12464 58.43635 99.21875 56.46875 C 98.312857 54.50115 97.646635 56.12885 96.71875 55.15625 C 95.789318 54.18395 99.59375 50.9375 99.59375 50.9375 z "
       transform="translate(0,972.3622)"
       id="path4001" />
    <path
       inkscape:connector-curvature="0"
       id="jigsaw"
       d="m 10.672033,992.6776 c 0,0 2.043687,-4.11929 3.797687,-3.62535 1.754773,0.49377 0.08413,2.22136 1.773736,2.64488 1.688836,0.42368 3.870678,-0.90728 2.964785,-2.87488 -0.905893,-1.96761 -1.555293,-0.3302 -2.483178,-1.3028 -0.929432,-0.97232 2.88181,-4.21283 2.88181,-4.21283 0,0 3.561239,4.65731 4.048089,3.17356 0.590263,-1.79524 1.851562,-3.76 3.954282,-1.56004 0,0 1.750951,1.60305 0.686963,2.62006 -1.063987,1.01701 -2.191743,0.76453 -2.486679,1.70812 -0.292325,0.94473 3.51835,2.61793 3.51835,2.61793 0,0 -1.614052,4.15257 -3.296097,3.4571 -1.682188,-0.69625 -0.212979,-2.65348 -2.590914,-2.70895 -1.029182,0.01 -2.580763,0.91414 -2.611321,2.37256 0.291319,2.11378 1.532766,1.3309 2.66161,2.28672 1.131508,0.95293 -2.809042,4.14402 -2.809042,4.14402 0,0 -1.792998,-2.8078 -3.620234,-3.04711 -1.827667,-0.24163 -0.380174,1.78871 -1.890871,2.37311 -1.507953,0.599 -4.070966,-1.15633 -3.368031,-3.20074 0.704387,-2.04949 2.526793,-0.50946 2.379759,-2.00589 -0.145578,-1.51433 -3.510703,-2.85947 -3.510703,-2.85947 z"
       style="fill:#000000;fill-opacity:1;stroke:none" />
    <path
       style="fill:#808080;fill-opacity:1;stroke:none"
       d="m 50.672033,992.6776 c 0,0 2.043687,-4.11929 3.797687,-3.62535 1.754773,0.49377 0.08413,2.22136 1.773736,2.64488 1.688836,0.42368 3.870678,-0.90728 2.964785,-2.87488 -0.905893,-1.96761 -1.555293,-0.3302 -2.483178,-1.3028 -0.929432,-0.97232 2.88181,-4.21283 2.88181,-4.21283 0,0 3.561239,4.65731 4.048089,3.17356 0.590263,-1.79524 1.851562,-3.76 3.954282,-1.56004 0,0 1.750951,1.60305 0.686963,2.62006 -1.063987,1.01701 -2.191743,0.76453 -2.486679,1.70812 -0.292325,0.94473 3.51835,2.61793 3.51835,2.61793 0,0 -1.614052,4.15257 -3.296097,3.4571 -1.682188,-0.69625 -0.212979,-2.65348 -2.590914,-2.70895 -1.029182,0.01 -2.580763,0.91414 -2.611321,2.37256 0.291319,2.11378 1.532766,1.3309 2.66161,2.28672 1.131508,0.95293 -2.809042,4.14402 -2.809042,4.14402 0,0 -1.792998,-2.8078 -3.620234,-3.04711 -1.827667,-0.24163 -0.380174,1.78871 -1.890871,2.37311 -1.507953,0.599 -4.070966,-1.15633 -3.368031,-3.20074 0.704387,-2.04949 2.526793,-0.50946 2.379759,-2.00589 -0.145578,-1.51433 -3.510703,-2.85947 -3.510703,-2.85947 z"
       id="path3859"
       inkscape:connector-curvature="0" />
    <path
       inkscape:connector-curvature="0"
       id="path3861"
       d="m 90.672033,992.6776 c 0,0 2.043687,-4.11929 3.797687,-3.62535 1.754773,0.49377 0.08413,2.22136 1.773736,2.64488 1.688836,0.42368 3.870674,-0.90728 2.964785,-2.87488 -0.905893,-1.96761 -1.555293,-0.3302 -2.483178,-1.3028 -0.929432,-0.97232 2.88181,-4.21283 2.88181,-4.21283 0,0 3.561237,4.65731 4.048087,3.17356 0.59027,-1.79524 1.85156,-3.76 3.95428,-1.56004 0,0 1.75096,1.60305 0.68697,2.62006 -1.06399,1.01701 -2.19175,0.76453 -2.48668,1.70812 -0.29233,0.94473 3.51835,2.61793 3.51835,2.61793 0,0 -1.61405,4.15257 -3.2961,3.4571 -1.68219,-0.69625 -0.21298,-2.65348 -2.59091,-2.70895 -1.02918,0.01 -2.58077,0.91414 -2.61132,2.37256 0.29132,2.11378 1.53276,1.3309 2.66161,2.28672 1.1315,0.95293 -2.80905,4.14402 -2.80905,4.14402 0,0 -1.792994,-2.8078 -3.62023,-3.04711 -1.827667,-0.24163 -0.380174,1.78871 -1.890871,2.37311 -1.507953,0.599 -4.070966,-1.15633 -3.368031,-3.20074 0.704387,-2.04949 2.526793,-0.50946 2.379759,-2.00589 -0.145578,-1.51433 -3.510703,-2.85947 -3.510703,-2.85947 z"
       style="fill:#ffffff;fill-opacity:1;stroke:none" />
  </g>
</svg>
