<?xml version="1.0" encoding="UTF-8" standalone="no"?>
<!-- Created with Inkscape (http://www.inkscape.org/) -->

<svg
   xmlns:dc="http://purl.org/dc/elements/1.1/"
   xmlns:cc="http://creativecommons.org/ns#"
   xmlns:rdf="http://www.w3.org/1999/02/22-rdf-syntax-ns#"
   xmlns:svg="http://www.w3.org/2000/svg"
   xmlns="http://www.w3.org/2000/svg"
   xmlns:xlink="http://www.w3.org/1999/xlink"
   xmlns:sodipodi="http://sodipodi.sourceforge.net/DTD/sodipodi-0.dtd"
   xmlns:inkscape="http://www.inkscape.org/namespaces/inkscape"
   width="280"
   height="80"
   id="svg2"
   version="1.1"
   inkscape:version="0.48.4 r9939"
   sodipodi:docname="ebx_Menu_sprite_light.svg"
   inkscape:export-filename="D:\Work\EBX_BrancheVariable\_ebx-tools\webapps\ebx-manager\www\common\images\onHeader\ebx_Menu_sprite_light.png"
   inkscape:export-xdpi="90"
   inkscape:export-ydpi="90">
  <defs
     id="defs4">
    <linearGradient
       id="linearGradient7209">
      <stop
         style="stop-color:#808080;stop-opacity:0"
         offset="0"
         id="stop7211" />
      <stop
         style="stop-color:#e0e0e0;stop-opacity:1;"
         offset="1"
         id="stop7213" />
    </linearGradient>
    <linearGradient
       id="linearGradient4425">
      <stop
         id="stop4427"
         offset="0"
         style="stop-color:#808080;stop-opacity:1;" />
      <stop
         id="stop4429"
         offset="1"
         style="stop-color:#e0e0e0;stop-opacity:1;" />
    </linearGradient>
    <linearGradient
       id="linearGradient8576">
      <stop
         style="stop-color:#808080;stop-opacity:0"
         offset="0"
         id="stop8578" />
      <stop
         style="stop-color:#e0e0e0;stop-opacity:1;"
         offset="1"
         id="stop8580" />
    </linearGradient>
    <linearGradient
       inkscape:collect="always"
       xlink:href="#linearGradient7209-6"
       id="linearGradient4583-7"
       gradientUnits="userSpaceOnUse"
       x1="10.2157"
       y1="194.83334"
       x2="17.426804"
       y2="186.83336"
       gradientTransform="translate(6.0092464,-0.33333238)" />
    <linearGradient
       id="linearGradient7209-6">
      <stop
         style="stop-color:#c0c0c0;stop-opacity:0;"
         offset="0"
         id="stop7211-1" />
      <stop
         style="stop-color:#e0e0e0;stop-opacity:1;"
         offset="1"
         id="stop7213-4" />
    </linearGradient>
    <linearGradient
       inkscape:collect="always"
       xlink:href="#linearGradient4425-3"
       id="linearGradient4585-2"
       gradientUnits="userSpaceOnUse"
       gradientTransform="translate(7.2110997,1.5000409)"
       x1="4.8601542"
       y1="195.00002"
       x2="13.167546"
       y2="195.00002" />
    <linearGradient
       id="linearGradient4425-3">
      <stop
         id="stop4427-2"
         offset="0"
         style="stop-color:#c0c0c0;stop-opacity:1;" />
      <stop
         id="stop4429-2"
         offset="1"
         style="stop-color:#e0e0e0;stop-opacity:1;" />
    </linearGradient>
    <linearGradient
       inkscape:collect="always"
       xlink:href="#linearGradient7209-6"
       id="linearGradient5363-1"
       gradientUnits="userSpaceOnUse"
       x1="10.2157"
       y1="194.83334"
       x2="17.426804"
       y2="186.83336"
       gradientTransform="translate(-7.2111075,11)" />
    <linearGradient
       id="linearGradient8684">
      <stop
         style="stop-color:#808080;stop-opacity:0"
         offset="0"
         id="stop8686" />
      <stop
         style="stop-color:#e0e0e0;stop-opacity:1;"
         offset="1"
         id="stop8688" />
    </linearGradient>
    <linearGradient
       id="linearGradient6760">
      <stop
         id="stop6762"
         offset="0"
         style="stop-color:#808080;stop-opacity:1;" />
      <stop
         id="stop6764"
         offset="1"
         style="stop-color:#e0e0e0;stop-opacity:1;" />
    </linearGradient>
    <linearGradient
       inkscape:collect="always"
       xlink:href="#linearGradient7209-6"
       id="linearGradient4080"
       gradientUnits="userSpaceOnUse"
       gradientTransform="translate(52.881297,808.02894)"
       x1="10.2157"
       y1="194.83334"
       x2="17.426804"
       y2="186.83336" />
    <linearGradient
       inkscape:collect="always"
       xlink:href="#linearGradient4425-3"
       id="linearGradient4083"
       gradientUnits="userSpaceOnUse"
       gradientTransform="translate(67.303504,798.52898)"
       x1="4.8601542"
       y1="195.00002"
       x2="13.167546"
       y2="195.00002" />
    <linearGradient
       inkscape:collect="always"
       xlink:href="#linearGradient6760"
       id="linearGradient4204"
       gradientUnits="userSpaceOnUse"
       x1="14.5"
       y1="200"
       x2="13.03125"
       y2="198.46875" />
  </defs>
  <sodipodi:namedview
     id="base"
     pagecolor="#ffffff"
     bordercolor="#666666"
     borderopacity="1.0"
     inkscape:pageopacity="0.0"
     inkscape:pageshadow="2"
     inkscape:zoom="4"
     inkscape:cx="179.59717"
     inkscape:cy="54.586837"
     inkscape:document-units="px"
     inkscape:current-layer="layer1"
     showgrid="true"
     inkscape:window-width="1574"
     inkscape:window-height="968"
     inkscape:window-x="39"
     inkscape:window-y="22"
     inkscape:window-maximized="0"
     inkscape:snap-bbox="true"
     inkscape:snap-global="true">
    <inkscape:grid
       type="xygrid"
       id="grid2985"
       empspacing="10"
       visible="true"
       enabled="true"
       snapvisiblegridlinesonly="true"
       dotted="false"
       spacingx="1px"
       spacingy="1px" />
    <inkscape:grid
       type="xygrid"
       id="grid2987"
       empspacing="2"
       visible="true"
       enabled="true"
       snapvisiblegridlinesonly="true"
       spacingx="40px"
       spacingy="40px"
       color="#800000"
       opacity="1"
       empcolor="#ff0000"
       empopacity="0.25098039" />
    <inkscape:grid
       type="xygrid"
       id="grid3195"
       empspacing="1"
       visible="true"
       enabled="true"
       snapvisiblegridlinesonly="true"
       originy="0.5px"
       originx="0.5px"
       empcolor="#ff0000"
       empopacity="0.0627451"
       color="#ff0000"
       opacity="0"
       dotted="true" />
  </sodipodi:namedview>
  <metadata
     id="metadata7">
    <rdf:RDF>
      <cc:Work
         rdf:about="">
        <dc:format>image/svg+xml</dc:format>
        <dc:type
           rdf:resource="http://purl.org/dc/dcmitype/StillImage" />
        <dc:title></dc:title>
      </cc:Work>
    </rdf:RDF>
  </metadata>
  <g
     inkscape:groupmode="layer"
     id="layer2"
     inkscape:label="background"
     style="display:none">
    <rect
       style="color:#000000;fill:#017cff;fill-opacity:1;fill-rule:evenodd;stroke:none;stroke-width:2;marker:none;visibility:visible;display:inline;overflow:visible;enable-background:accumulate"
       id="rect4047"
       width="280"
       height="80"
       x="0"
       y="0" />
  </g>
  <g
     inkscape:label="Calque 1"
     inkscape:groupmode="layer"
     id="layer1"
     transform="translate(0,-972.3622)">
    <path
       style="color:#000000;fill:#ffffff;fill-opacity:1;fill-rule:evenodd;stroke:none;stroke-width:2;marker:none;visibility:visible;display:inline;overflow:visible;enable-background:accumulate"
       d="m 0,80 0,40 280,0 0,-40 -280,0 z m 20,11 c 6,0 8,2 8,3.5 l 0,12 c 0,1.5 -2,3.5 -8,3.5 -6,0 -8,-2 -8,-3.5 l 0,-12 C 12,93 14,91 20,91 z m 120,0 c 6,0 8,2 8,3.5 l 0,2.5 -4.71875,4.71875 C 142.3973,101.87811 141.31867,102.00003 140,102 c -4,-1e-4 -6,-1.09375 -6,-1.09375 l 0,1.59375 c 0,0 1,1.5 6,1.5 0.38185,0 0.69472,-0.0151 1.03125,-0.0312 l -2,2 C 135.69014,105.81144 134,104.90625 134,104.90625 l 0,1.59375 c 0,0 0.90364,1.27826 5,1.46875 l 0,2 c -5.1883,-0.21898 -7,-2.0596 -7,-3.46875 l 0,-12 c 0,-1.5 2,-3.5 8,-3.5 z m 124.6875,0 c 0.15282,-0.014 0.2923,0 0.4375,0 0.96798,0.025 1.71875,0.40625 1.71875,0.40625 L 267,91.625 c 0,0 -1.6128,1.0734 -1.8125,1.1875 -0.22832,0.1429 -0.88969,0.8989 -0.0625,2.125 0.79843,1.2262 1.68047,0.8245 1.9375,0.625 0.1997,-0.1143 1.78125,-1.125 1.78125,-1.125 L 269,94.65625 c 0,0 0.11155,2.14115 -1.65625,3.28125 -0.82718,0.542 -1.71627,0.5408 -2.34375,0.3125 -0.62749,-0.1995 -1.07283,0.01 -1.84375,0.75 l -9,9.21875 c -0.71252,0.741 -1.85266,0.74385 -2.59375,0.0312 -0.71235,-0.7415 -0.71252,-1.88085 0,-2.59375 l 9.53125,-8.875 c 0.65495,-0.7129 0.82828,-0.9856 0.65625,-1.8125 -0.25867,-1.2461 0.0436,-2.6313 1.5,-3.5 0.48783,-0.2913 0.97905,-0.42775 1.4375,-0.46875 z m -40.8125,0.96875 c 0.84032,-0.138 1.4669,1.13835 0.84375,1.71875 l -2.65625,2.6875 1.59375,1.5625 2.65625,-2.65625 c 0.15107,-0.1505 0.35145,-0.25065 0.5625,-0.28125 0.84041,-0.1382 1.46708,1.13835 0.84375,1.71875 l -2.65625,2.65625 1.28125,1.28125 0.34375,0.34375 -0.34375,0.34375 -2,2 c -1.87667,1.8766 -4.60493,2.14045 -6.71875,0.78125 l -0.25,0.21875 -4.03125,4.03125 L 213,108.71875 212.65625,108.375 211.625,107.34375 211.28125,107 l 0.34375,-0.34375 4.03125,-4.03125 0.21875,-0.25 c -1.35923,-2.1138 -1.09542,-4.84215 0.78125,-6.71875 l 2,-2 L 219,93.3125 l 0.375,0.34375 1.25,1.28125 2.65625,-2.65625 c 0.13466,-0.1396 0.31078,-0.23865 0.5,-0.28125 0.0307,-0.012 0.062,-0.02225 0.0937,-0.03125 z M 60,92 c 4.418278,0 8,3.581722 8,8 0,4.41828 -3.581722,8 -8,8 -4.418278,0 -8,-3.58172 -8,-8 0,-4.418278 3.581722,-8 8,-8 z m 34,0 9,0 -2,2 -7,0 0,12 12,0 0,-6 2,-3 0,9 c 0,1.0907 -0.9093,2 -2,2 l -12,0 c -1.090703,0 -2,-0.9093 -2,-2 l 0,-12 c 0,-1.0907 0.909297,-2 2,-2 z m 80,0 9,0 -2,2 -7,0 0,12 5,0 0,2 -5,0 c -1.0907,0 -2,-0.9093 -2,-2 l 0,-12 c 0,-1.0907 0.9093,-2 2,-2 z M 20,93 c -5,0 -6,1.5 -6,1.5 0,0 1,1.5 6,1.5 5,0 6,-1.5 6,-1.5 0,0 -1,-1.5 -6,-1.5 z m 86,0 0,2 -6,8 -4,-4 2,-2 2,2 6,-6 z m 34,0 c -5,0 -6,1.5 -6,1.5 0,0 1,1.5 6,1.5 5,0 6,-1.5 6,-1.5 0,0 -1,-1.5 -6,-1.5 z m 46,0 0,2 -6,8 -4,-4 2,-2 2,2 6,-6 z M 60,94 c -3.313708,0 -6,2.686292 -6,6 0,3.31371 2.686292,6 6,6 3.313708,0 6,-2.68629 6,-6 0,-3.313708 -2.686292,-6 -6,-6 z m 0,1 c 0.552285,0 1,0.447715 1,1 l 0,2.375 0.5625,-0.28125 c 0.493671,-0.2477 1.096139,-0.02485 1.34375,0.46875 0.24761,0.4937 0.02492,1.09605 -0.46875,1.34375 l -2,1 C 60.33105,100.93285 60.235698,101 60,101 c -0.503403,0 -1,-0.39409 -1,-1 l 0,-4 c 0,-0.552285 0.447715,-1 1,-1 z M 14,96.90625 14,98.5 c 0,0 1,1.5 6,1.5 5,0 6,-1.5 6,-1.5 l 0,-1.59375 c 0,0 -2,1.09385 -6,1.09375 -4,-1e-4 -6,-1.09375 -6,-1.09375 z m 120,0 0,1.59375 c 0,0 1,1.5 6,1.5 5,0 6,-1.5 6,-1.5 l 0,-1.59375 c 0,0 -2,1.09385 -6,1.09375 -4,-1e-4 -6,-1.09375 -6,-1.09375 z M 147,100 l 3,3 -6,6 -3,-3 6,-6 z m 40,0 3,3 -6,6 -3,-3 6,-6 z M 14,100.90625 14,102.5 c 0,0 1,1.5 6,1.5 5,0 6,-1.5 6,-1.5 l 0,-1.59375 c 0,0 -2,1.09385 -6,1.09375 -4,-1e-4 -6,-1.09375 -6,-1.09375 z m 0,4 0,1.59375 c 0,0 1,1.5 6,1.5 5,0 6,-1.5 6,-1.5 l 0,-1.59375 c 0,0 -2,1.09385 -6,1.09375 -4,-1e-4 -6,-1.09375 -6,-1.09375 z M 252.875,106 c -0.52017,0 -0.9375,0.4174 -0.9375,0.9375 0,0.5202 0.41733,0.9375 0.9375,0.9375 0.52018,0 0.9375,-0.4173 0.9375,-0.9375 0,-0.5201 -0.41732,-0.9375 -0.9375,-0.9375 z M 140,107 l 3,3 -3,0 0,-3 z m 40,0 3,3 -3,0 0,-3 z"
       id="rect4047-1"
       transform="translate(0,932.3622)"
       inkscape:connector-curvature="0" />
    <use
       height="512"
       width="256"
       transform="translate(53,800.3622)"
       id="use4581"
       xlink:href="#use7753"
       y="0"
       x="0" />
    <use
       x="0"
       y="0"
       xlink:href="#use7753"
       id="use4562"
       transform="translate(47,796.3622)"
       width="256"
       height="512" />
    <path
       inkscape:connector-curvature="0"
       id="path3976"
       d="m 265.14039,983.3637 c -0.58078,-0.016 -1.23126,0.089 -1.8817,0.4774 -1.45639,0.8687 -1.77527,2.2365 -1.5166,3.4826 0.17203,0.8269 0.009,1.1126 -0.64595,1.8255 l -9.54894,8.8749 c -0.71252,0.7129 -0.68425,1.8423 0.0281,2.5838 0.74109,0.7124 1.87132,0.713 2.58384,-0.028 l 8.98723,-9.212 c 0.77092,-0.7415 1.22613,-0.9578 1.85362,-0.7583 0.62748,0.2283 1.50388,0.2331 2.33106,-0.3089 1.7678,-1.1401 1.65702,-3.286 1.65702,-3.286 l -0.14042,-0.2246 c 0,0 -1.59775,1.0091 -1.79745,1.1234 -0.25703,0.1995 -1.13944,0.6082 -1.93787,-0.618 -0.82719,-1.2261 -0.14402,-1.9915 0.0843,-2.1344 0.1997,-0.1141 1.79745,-1.1796 1.79745,-1.1796 l -0.14043,-0.2247 c 0,0 -0.74522,-0.3676 -1.7132,-0.3931 z m -12.27319,14.9975 c 0.52018,0 0.95489,0.4066 0.95489,0.9267 0,0.5202 -0.43471,0.9549 -0.95489,0.9549 -0.52017,0 -0.92681,-0.4347 -0.92681,-0.9549 0,-0.5201 0.40664,-0.9267 0.92681,-0.9267 z"
       style="fill:#ffffff;fill-opacity:1;stroke:none" />
    <g
       style="fill:#ffffff;fill-opacity:1;stroke:#ffffff;stroke-opacity:1"
       transform="matrix(0.70710678,-0.70710678,0.70710678,0.70710678,-693.90914,445.08361)"
       id="g3978">
      <path
         sodipodi:nodetypes="ccccc"
         inkscape:connector-curvature="0"
         id="path3980"
         d="m 248.64035,1032.5086 5.65685,0 0,1.4143 -5.65685,0 z"
         style="color:#000000;fill:#ffffff;fill-opacity:1;fill-rule:evenodd;stroke:#ffffff;stroke-width:1;stroke-linecap:square;stroke-linejoin:miter;stroke-miterlimit:4;stroke-opacity:1;marker:none;visibility:visible;display:inline;overflow:visible;enable-background:accumulate" />
      <path
         sodipodi:nodetypes="cccczc"
         inkscape:connector-curvature="0"
         id="path3982"
         d="m 259.95406,1028.266 2.82842,0 0,9.8995 -2.82842,0 c -2.82843,0 -4.94975,-2.1213 -4.94975,-4.9497 0,-2.8285 2.12132,-4.9498 4.94975,-4.9498 z"
         style="color:#000000;fill:#ffffff;fill-opacity:1;fill-rule:evenodd;stroke:#ffffff;stroke-width:1;stroke-linecap:square;stroke-linejoin:miter;stroke-miterlimit:4;stroke-opacity:1;marker:none;visibility:visible;display:inline;overflow:visible;enable-background:accumulate" />
      <path
         sodipodi:nodetypes="cc"
         style="fill:#ffffff;fill-opacity:1;stroke:#ffffff;stroke-width:2;stroke-linecap:round;stroke-linejoin:miter;stroke-miterlimit:4;stroke-opacity:1;stroke-dasharray:none"
         d="m 262.78249,1031.0944 4.24263,0"
         id="path3984"
         inkscape:connector-curvature="0" />
      <path
         sodipodi:nodetypes="cc"
         style="fill:#ffffff;fill-opacity:1;stroke:#ffffff;stroke-width:2;stroke-linecap:round;stroke-linejoin:miter;stroke-miterlimit:4;stroke-opacity:1;stroke-dasharray:none"
         d="m 262.78249,1035.337 4.24263,0"
         id="use3986"
         inkscape:connector-curvature="0" />
    </g>
    <g
       id="g3988"
       style="fill:#ffffff;fill-opacity:1"
       transform="translate(0,-40)">
      <path
         style="font-size:medium;font-style:normal;font-variant:normal;font-weight:normal;font-stretch:normal;text-indent:0;text-align:start;text-decoration:none;line-height:normal;letter-spacing:normal;word-spacing:normal;text-transform:none;direction:ltr;block-progression:tb;writing-mode:lr-tb;text-anchor:start;baseline-shift:baseline;color:#000000;fill:#ffffff;fill-opacity:1;stroke:none;stroke-width:2;marker:none;visibility:visible;display:inline;overflow:visible;enable-background:accumulate;font-family:Sans;-inkscape-font-specification:Sans"
         d="m 94,1024.3622 c -1.090703,0 -2,0.9093 -2,2 l 0,12 c 0,1.0907 0.909297,2 2,2 l 12,0 c 1.0907,0 2,-0.9093 2,-2 l 0,-9 -2,3 0,6 -12,0 0,-12 7,0 2,-2 z"
         id="path3990"
         inkscape:connector-curvature="0"
         sodipodi:nodetypes="sssssscccccccs" />
      <path
         style="fill:#ffffff;fill-opacity:1;stroke:none"
         d="m 96,1031.3622 2,-2 2,2 6,-6 0,2 -6,8 z"
         id="path3992"
         inkscape:connector-curvature="0"
         sodipodi:nodetypes="ccccccc" />
    </g>
    <g
       id="g4049"
       style="stroke:#ffffff;stroke-opacity:1"
       transform="translate(0,-40)">
      <path
         sodipodi:type="arc"
         style="color:#000000;fill:none;stroke:#ffffff;stroke-width:2;stroke-opacity:1;marker:none;visibility:visible;display:inline;overflow:visible;enable-background:accumulate"
         id="path3994"
         sodipodi:cx="60"
         sodipodi:cy="20"
         sodipodi:rx="7"
         sodipodi:ry="7"
         d="m 67,20 c 0,3.865993 -3.134007,7 -7,7 -3.865993,0 -7,-3.134007 -7,-7 0,-3.865993 3.134007,-7 7,-7 3.865993,0 7,3.134007 7,7 z"
         transform="translate(0,1012.3622)" />
      <path
         style="fill:none;stroke:#ffffff;stroke-width:2;stroke-linecap:round;stroke-linejoin:miter;stroke-miterlimit:4;stroke-opacity:1;stroke-dasharray:none"
         d="m 60,1032.3622 0,-4"
         id="path3996"
         inkscape:connector-curvature="0" />
      <path
         style="fill:none;stroke:#ffffff;stroke-width:2;stroke-linecap:round;stroke-linejoin:miter;stroke-miterlimit:4;stroke-opacity:1;stroke-dasharray:none"
         d="m 60,1032.3622 2,-1"
         id="path3998"
         inkscape:connector-curvature="0"
         sodipodi:nodetypes="cc" />
    </g>
    <g
       style="stroke:#ffffff;stroke-width:1.52901244;stroke-miterlimit:4;stroke-opacity:1;stroke-dasharray:none"
       id="g4000"
       transform="matrix(1.3080338,0,0,1.3080338,214.55254,764.53024)">
      <path
         transform="matrix(0.97300813,0,0,1.2741774,-168.6833,183.99012)"
         d="m 26,-11 c 0,0.828427 -2.462434,1.5 -5.5,1.5 -3.037566,0 -5.5,-0.671573 -5.5,-1.5 0,-0.828427 2.462434,-1.5 5.5,-1.5 3.037566,0 5.5,0.671573 5.5,1.5 z"
         sodipodi:ry="1.5"
         sodipodi:rx="5.5"
         sodipodi:cy="-11"
         sodipodi:cx="20.5"
         id="path4002"
         style="color:#000000;fill:none;stroke:#ffffff;stroke-width:1.37321281;stroke-linecap:round;stroke-linejoin:round;stroke-miterlimit:4;stroke-opacity:1;stroke-dasharray:none;stroke-dashoffset:1;marker:none;visibility:visible;display:inline;overflow:visible;enable-background:accumulate"
         sodipodi:type="arc" />
      <path
         sodipodi:nodetypes="cc"
         transform="translate(-169.58818,182.5629)"
         inkscape:connector-curvature="0"
         id="path4004"
         d="m 15.499998,-12.58873 0,9.1740753"
         style="fill:none;stroke:#ffffff;stroke-width:1.52901244;stroke-linecap:round;stroke-linejoin:miter;stroke-miterlimit:4;stroke-opacity:1;stroke-dasharray:none" />
      <path
         sodipodi:nodetypes="cc"
         transform="translate(-169.58818,182.5629)"
         inkscape:connector-curvature="0"
         id="path4006"
         d="m 26.203086,-12.58873 0,9.1740753"
         style="fill:none;stroke:#ffffff;stroke-width:1.52901244;stroke-linecap:round;stroke-linejoin:miter;stroke-miterlimit:4;stroke-opacity:1;stroke-dasharray:none" />
      <path
         sodipodi:open="true"
         sodipodi:end="3.1415927"
         sodipodi:start="0"
         sodipodi:type="arc"
         style="color:#000000;fill:none;stroke:#ffffff;stroke-width:1.37321281;stroke-linecap:round;stroke-linejoin:round;stroke-miterlimit:4;stroke-opacity:1;stroke-dasharray:none;stroke-dashoffset:1;marker:none;visibility:visible;display:inline;overflow:visible;enable-background:accumulate"
         id="path4008"
         sodipodi:cx="20.5"
         sodipodi:cy="-11"
         sodipodi:rx="5.5"
         sodipodi:ry="1.5"
         d="m 26,-11 c 0,0.828427 -2.462434,1.5 -5.5,1.5 -3.037566,0 -5.5,-0.671573 -5.5,-1.5 0,0 0,0 0,0"
         transform="matrix(0.97300813,0,0,1.2741774,-168.6833,187.04815)" />
      <path
         transform="matrix(0.97300813,0,0,1.2741774,-168.68331,190.10617)"
         d="m 26,-11 c 0,0.828427 -2.462434,1.5 -5.5,1.5 -3.037566,0 -5.5,-0.671573 -5.5,-1.5 0,0 0,0 0,0"
         sodipodi:ry="1.5"
         sodipodi:rx="5.5"
         sodipodi:cy="-11"
         sodipodi:cx="20.5"
         id="path4010"
         style="color:#000000;fill:none;stroke:#ffffff;stroke-width:1.37321281;stroke-linecap:round;stroke-linejoin:round;stroke-miterlimit:4;stroke-opacity:1;stroke-dasharray:none;stroke-dashoffset:1;marker:none;visibility:visible;display:inline;overflow:visible;enable-background:accumulate"
         sodipodi:type="arc"
         sodipodi:start="0"
         sodipodi:end="3.1415927"
         sodipodi:open="true" />
      <path
         sodipodi:open="true"
         sodipodi:end="3.1415927"
         sodipodi:start="0"
         sodipodi:type="arc"
         style="color:#000000;fill:none;stroke:#ffffff;stroke-width:1.37321281;stroke-linecap:round;stroke-linejoin:round;stroke-miterlimit:4;stroke-opacity:1;stroke-dasharray:none;stroke-dashoffset:1;marker:none;visibility:visible;display:inline;overflow:visible;enable-background:accumulate"
         id="path4012"
         sodipodi:cx="20.5"
         sodipodi:cy="-11"
         sodipodi:rx="5.5"
         sodipodi:ry="1.5"
         d="m 26,-11 c 0,0.828427 -2.462434,1.5 -5.5,1.5 -3.037566,0 -5.5,-0.671573 -5.5,-1.5 0,0 0,0 0,0"
         transform="matrix(0.97300813,0,0,1.2741774,-168.68331,193.1642)" />
    </g>
    <g
       transform="matrix(1.3080338,0,0,1.3080338,334.55254,764.53024)"
       id="g4014"
       style="stroke:#808080;stroke-width:1.52901244;stroke-miterlimit:4;stroke-opacity:1;stroke-dasharray:none">
      <path
         sodipodi:type="arc"
         style="color:#000000;fill:none;stroke:#ffffff;stroke-width:1.37321281;stroke-linecap:round;stroke-linejoin:round;stroke-miterlimit:4;stroke-opacity:1;stroke-dasharray:none;stroke-dashoffset:1;marker:none;visibility:visible;display:inline;overflow:visible;enable-background:accumulate"
         id="path4016"
         sodipodi:cx="20.5"
         sodipodi:cy="-11"
         sodipodi:rx="5.5"
         sodipodi:ry="1.5"
         d="m 26,-11 c 0,0.828427 -2.462434,1.5 -5.5,1.5 -3.037566,0 -5.5,-0.671573 -5.5,-1.5 0,-0.828427 2.462434,-1.5 5.5,-1.5 3.037566,0 5.5,0.671573 5.5,1.5 z"
         transform="matrix(0.97300813,0,0,1.2741774,-168.6833,183.99012)" />
      <path
         style="fill:none;stroke:#ffffff;stroke-width:1.52901244;stroke-linecap:round;stroke-linejoin:miter;stroke-miterlimit:4;stroke-opacity:1;stroke-dasharray:none"
         d="m 15.499998,-12.58873 0,9.1740753"
         id="path4018"
         inkscape:connector-curvature="0"
         transform="translate(-169.58818,182.5629)"
         sodipodi:nodetypes="cc" />
      <path
         inkscape:connector-curvature="0"
         id="path4020"
         transform="matrix(0.76450624,0,0,0.76450624,-286.34775,158.88883)"
         d="m 172,18.5 c 0,0.999992 1,3.5 8,3.5 1.25703,0 2.31973,-0.08068 3.21875,-0.21875 L 186.5,18.5 l -0.5,0 c 0,0 -1,1.5 -6,1.5 -5,0 -6,-1.5 -6,-1.5 l -2,0 z"
         style="fill:#ffffff;fill-opacity:1;stroke:none" />
      <path
         inkscape:connector-curvature="0"
         id="path4022"
         transform="matrix(0.76450624,0,0,0.76450624,-286.34775,158.88883)"
         d="m 172,22.5 c 0,0.951546 0.9124,3.247187 7.03125,3.46875 l 2,-2 C 180.69472,23.984911 180.38185,24 180,24 c -5,0 -6,-1.5 -6,-1.5 l -2,0 z"
         style="fill:#ffffff;fill-opacity:1;stroke:none" />
      <path
         inkscape:connector-curvature="0"
         id="path4024"
         transform="matrix(0.76450624,0,0,0.76450624,-286.34775,158.88883)"
         d="m 172,26.5 c 0,0.949984 0.90826,3.240717 7,3.46875 l 0,-2 C 174.90365,27.778264 174,26.5 174,26.5 l -2,0 z"
         style="fill:#ffffff;fill-opacity:1;stroke:none" />
      <path
         transform="matrix(0.76450624,0,0,0.76450624,-286.34775,158.88883)"
         inkscape:connector-curvature="0"
         id="path4026"
         d="m 186,14.5 2,0 0,2.5 -2,2 z"
         style="fill:#ffffff;fill-opacity:1;stroke:none" />
    </g>
    <g
       transform="translate(-50,-40)"
       style="fill:#ffffff;fill-opacity:1"
       id="g4028">
      <path
         style="fill:#ffffff;fill-opacity:1;stroke:none"
         d="m 190,27 0,3 3,0 z"
         id="path4030"
         inkscape:connector-curvature="0"
         transform="translate(0,1012.3622)" />
      <path
         style="fill:#ffffff;fill-opacity:1;stroke:none"
         d="m 191,26 3,3 6,-6 -3,-3 z"
         id="path4032"
         inkscape:connector-curvature="0"
         transform="translate(0,1012.3622)" />
    </g>
    <g
       transform="translate(80,-40)"
       id="g4034"
       style="fill:#ffffff;fill-opacity:1">
      <path
         sodipodi:nodetypes="ssssccccccs"
         inkscape:connector-curvature="0"
         id="path4036"
         d="m 94,1024.3622 c -1.090703,0 -2,0.9093 -2,2 l 0,12 c 0,1.0907 0.909297,2 2,2 l 5,0 0,-2 -5,0 0,-12 7,0 2,-2 z"
         style="font-size:medium;font-style:normal;font-variant:normal;font-weight:normal;font-stretch:normal;text-indent:0;text-align:start;text-decoration:none;line-height:normal;letter-spacing:normal;word-spacing:normal;text-transform:none;direction:ltr;block-progression:tb;writing-mode:lr-tb;text-anchor:start;baseline-shift:baseline;color:#000000;fill:#ffffff;fill-opacity:1;stroke:none;stroke-width:2;marker:none;visibility:visible;display:inline;overflow:visible;enable-background:accumulate;font-family:Sans;-inkscape-font-specification:Sans" />
      <path
         sodipodi:nodetypes="ccccccc"
         inkscape:connector-curvature="0"
         id="path4038"
         d="m 96,1031.3622 2,-2 2,2 6,-6 0,2 -6,8 z"
         style="fill:#ffffff;fill-opacity:1;stroke:none" />
    </g>
    <g
       transform="translate(-10,-40)"
       id="g4040"
       style="fill:#ffffff;fill-opacity:1">
      <path
         transform="translate(0,1012.3622)"
         inkscape:connector-curvature="0"
         id="path4042"
         d="m 190,27 0,3 3,0 z"
         style="fill:#ffffff;fill-opacity:1;stroke:none" />
      <path
         transform="translate(0,1012.3622)"
         inkscape:connector-curvature="0"
         id="path4044"
         d="m 191,26 3,3 6,-6 -3,-3 z"
         style="fill:#ffffff;fill-opacity:1;stroke:none" />
    </g>
    <g
       id="g4060"
       transform="matrix(0.70710678,-0.70710678,0.70710678,0.70710678,-693.90914,485.08361)"
       style="fill:#ffffff;fill-opacity:1;stroke:#ffffff;stroke-opacity:1" />
    <g
       style="fill:#ffffff;fill-opacity:1"
       id="g4070" />
    <g
       style="stroke:#ffffff;stroke-opacity:1"
       id="g4076" />
    <g
       style="stroke:#808080;stroke-width:1.52901244;stroke-miterlimit:4;stroke-opacity:1;stroke-dasharray:none"
       id="g4098"
       transform="matrix(1.3080338,0,0,1.3080338,334.55254,804.53024)" />
    <g
       id="g4112"
       style="fill:#ffffff;fill-opacity:1"
       transform="translate(-50,0)" />
    <g
       style="fill:#ffffff;fill-opacity:1"
       id="g4118"
       transform="translate(80,0)" />
    <g
       style="fill:#ffffff;fill-opacity:1"
       id="g4124"
       transform="translate(-10,0)" />
  </g>
</svg>
